<svg width="170" height="170" viewBox="0 0 170 170" fill="none" xmlns="http://www.w3.org/2000/svg">
<path opacity="0.4" d="M155.833 69.0628C152.929 69.0628 150.52 66.6545 150.52 63.7503V49.5837C150.52 31.3087 138.691 19.4795 120.416 19.4795H49.5827C31.3077 19.4795 19.4785 31.3087 19.4785 49.5837V63.7503C19.4785 66.6545 17.0702 69.0628 14.166 69.0628C11.2618 69.0628 8.85352 66.6545 8.85352 63.7503V49.5837C8.85352 25.217 25.216 8.85449 49.5827 8.85449H120.416C144.783 8.85449 161.145 25.217 161.145 49.5837V63.7503C161.145 66.6545 158.737 69.0628 155.833 69.0628Z" fill="#01321F"/>
<path opacity="0.4" d="M120.416 161.146H49.5827C25.216 161.146 8.85352 144.783 8.85352 120.417V106.25C8.85352 103.346 11.2618 100.938 14.166 100.938C17.0702 100.938 19.4785 103.346 19.4785 106.25V120.417C19.4785 138.692 31.3077 150.521 49.5827 150.521H120.416C138.691 150.521 150.52 138.692 150.52 120.417V106.25C150.52 103.346 152.929 100.938 155.833 100.938C158.737 100.938 161.145 103.346 161.145 106.25V120.417C161.145 144.783 144.783 161.146 120.416 161.146Z" fill="#01321F"/>
<path d="M116.166 58.1542L89.533 43.7748C86.6996 42.2873 83.3704 42.2873 80.5371 43.7748L53.9038 58.1542C51.9913 59.2167 50.7871 61.2706 50.7871 63.6081C50.7871 65.9456 51.9913 67.9999 53.9038 69.0624L80.5371 83.4417C81.9538 84.2209 83.5121 84.5749 85.0704 84.5749C86.6287 84.5749 88.1871 84.2209 89.6037 83.4417L116.237 69.0624C118.15 67.9999 119.354 65.9456 119.354 63.6081C119.283 61.2706 118.079 59.2167 116.166 58.1542Z" fill="#01321F"/>
<path d="M76.0755 88.3289L51.2839 75.9331C49.3714 75.0123 47.1754 75.0834 45.3338 76.2167C43.4921 77.35 42.4297 79.2624 42.4297 81.3874V104.833C42.4297 108.871 44.6964 112.554 48.3089 114.325L73.1005 126.721C73.9505 127.146 74.8714 127.358 75.863 127.358C76.9964 127.358 78.0588 127.075 79.0505 126.437C80.8922 125.304 81.9547 123.392 81.9547 121.267V97.8208C81.9547 93.7833 79.7589 90.1706 76.0755 88.3289Z" fill="#01321F"/>
<path d="M124.595 76.2167C122.754 75.0834 120.558 75.0123 118.645 75.9331L93.8538 88.3289C90.2413 90.1706 87.9746 93.7833 87.9746 97.8208V121.267C87.9746 123.392 89.0371 125.304 90.8788 126.437C91.8705 127.075 92.9329 127.358 94.0663 127.358C94.9871 127.358 95.9079 127.146 96.8288 126.721L121.62 114.325C125.233 112.483 127.5 108.871 127.5 104.833V81.3874C127.5 79.2624 126.437 77.35 124.595 76.2167Z" fill="#01321F"/>
</svg>
