<svg width="726" height="336" viewBox="0 0 726 336" fill="none" xmlns="http://www.w3.org/2000/svg">
<path d="M334.331 1.26089C328.31 4.10777 317.438 19.0768 317.438 24.4033C317.438 27.1583 320.365 31.4745 323.459 33.3112L326.47 35.1479L323.292 37.6275C321.536 39.0968 319.111 42.0355 317.94 44.2396C313.758 52.0455 315.682 52.4129 324.547 45.4334C327.975 42.6784 333.746 38.6377 337.342 36.5255C348.13 30.0052 352.479 26.6991 354.235 23.5767C355.824 20.7299 356.493 16.4136 355.406 16.4136C355.155 16.4136 352.646 17.883 349.803 19.7197C341.774 24.8624 337.258 26.6073 334.164 25.5971C331.488 24.7706 324.212 19.2605 324.128 18.0667C324.128 16.6891 331.237 10.9035 333.077 10.9035C334.164 10.9035 335.669 12.0056 336.84 13.6586C339.265 17.332 340.436 17.1483 342.025 12.7402C343.865 7.78116 343.698 3.9241 341.691 1.72006C339.767 -0.392136 338.094 -0.575806 334.331 1.26089Z" fill="#FFD599"/>
<path d="M206.716 54.525C204.709 57.9229 205.043 58.933 209.559 64.2595C211.817 67.0145 214.745 71.5144 215.999 74.2695C218.006 78.6775 218.341 80.3306 218.341 87.4018C218.257 95.2078 218.341 95.4833 219.762 93.5548C222.857 89.4222 222.857 75.1878 219.762 67.4737C217.672 62.3309 213.741 56.6372 210.396 54.0658L208.054 52.2291L206.716 54.525Z" fill="#FFD599"/>
<path d="M186.146 70.7803C185.644 72.9843 184.64 76.9332 183.971 79.5046C182.717 84.28 182.717 84.4637 186.062 96.494C193.17 122.483 194.927 134.238 201.199 195.951C205.129 234.522 207.638 250.134 211.318 258.674C214.663 266.297 223.277 276.398 229.298 279.613C233.396 281.817 234.567 282 240.756 281.633C251.627 280.99 257.063 276.949 264.925 263.817L270.026 255.185L274.04 259.225C280.981 266.113 293.359 272.633 299.38 272.633C303.394 272.633 306.739 268.133 308.663 260.327C310.001 254.909 310.084 253.164 309.165 245.266C306.572 221.665 294.446 213.124 282.57 226.716C280.647 228.828 278.472 231.95 277.636 233.603C276.8 235.348 275.462 236.818 274.709 237.001C273.873 237.185 270.11 241.777 266.263 247.379C258.234 259.042 255.223 261.246 245.188 262.807C236.407 264.184 233.229 262.991 226.706 255.827C217.088 245.083 214.58 235.899 212.071 202.655C209.98 174.645 207.722 151.687 204.879 130.84C200.948 101.637 191.665 66.9232 187.818 66.9232C187.4 66.9232 186.647 68.6681 186.146 70.7803ZM293.442 241.409C295.617 244.164 297.875 250.317 297.122 251.236C296.286 252.062 290.348 249.491 287.421 247.011C280.312 241.042 280.73 241.685 283.992 240.124C288.592 237.92 291.101 238.287 293.442 241.409Z" fill="#F9F9F9"/>
<path d="M334.336 79.9647C331.493 90.1584 331.409 91.2604 333.333 95.393C334.838 98.5154 335.507 103.474 337.18 123.403C339.27 148.749 344.121 196.503 348.47 235.441C350.728 255.094 351.062 260.512 350.644 272.91C350.226 288.062 350.644 289.532 353.571 284.022C356.247 278.971 357.669 270.522 358.171 257.022C358.672 241.869 357.92 233.237 350.142 162.432C344.455 111.464 344.288 109.168 344.874 109.168C345.041 109.168 346.713 110.638 348.47 112.382C355.244 119.086 354.825 115.597 346.546 95.393C339.187 77.4852 337.681 74.271 336.678 74.271C336.26 74.271 335.172 76.8423 334.336 79.9647Z" fill="#F9F9F9"/>
<path d="M102.597 104.391C99.8371 114.493 99.7535 115.503 100.924 117.064C102.597 119.268 116.73 126.799 118.152 126.248C119.992 125.421 122.584 118.258 122.584 113.574C122.584 108.799 123.337 109.442 109.873 101.544L104.353 98.238L102.597 104.391Z" fill="#FFD599"/>
<path d="M17.3803 130.47C15.3732 131.572 14.7041 133.501 14.8714 138.093C14.8714 139.562 14.4532 142.593 13.8678 144.705C12.9479 148.103 13.0315 148.929 14.286 151.041C15.0386 152.419 16.7949 153.888 18.1329 154.439C19.471 154.99 20.5582 155.725 20.5582 156.001C20.5582 157.011 13.4497 163.99 10.3554 166.011C6.00665 168.857 2.32695 173.817 1.65791 177.765C1.15614 180.704 1.40703 181.439 3.33051 183.275C4.91947 184.745 6.59206 185.388 9.10094 185.388C12.5298 185.388 21.9799 183 26.8304 180.888C29.6738 179.602 37.4513 174.276 37.1168 173.817C36.9496 173.633 32.2663 174.551 26.8304 175.745C14.2023 178.592 4.66858 178.776 4.66858 176.204C4.66858 175.745 6.75932 174.092 9.35183 172.439C15.2895 168.766 19.1365 165.092 22.2308 160.133L24.656 156.276L29.3393 157.103C32.7681 157.837 34.2734 157.745 35.1933 156.919C37.1168 155.174 38.873 147.644 37.9531 144.98C36.6987 141.307 29.6738 133.96 25.1578 131.572C20.4746 129.093 20.0564 129.093 17.3803 130.47ZM23.0671 142.133C23.4852 143.144 23.9034 144.98 23.9034 146.266C23.9034 148.195 23.4852 148.654 21.729 148.654C19.1365 148.654 16.3767 147.093 16.3767 145.715C16.3767 144.246 19.8055 140.389 21.06 140.389C21.6454 140.389 22.5653 141.215 23.0671 142.133ZM33.3535 147.001C35.7788 150.123 35.1933 151.041 31.0119 150.49C28.9211 150.215 27.1649 149.756 27.2485 149.297C27.2485 148.929 27.2485 147.184 27.2485 145.348V142.042L29.5902 143.603C30.8446 144.429 32.5172 145.991 33.3535 147.001Z" fill="#FFD599"/>
<path d="M144.834 136.901C140.736 146.36 139.147 153.339 138.98 161.971C138.896 171.247 140.318 174.369 144.75 174.369C146.758 174.369 148.012 173.726 149.183 172.165C150.772 169.961 154.033 158.941 153.281 158.206C153.113 158.023 152.026 159.4 150.939 161.329C148.347 165.737 144.75 166.563 143.496 162.89C142.158 158.941 142.492 154.349 145.085 143.604C146.423 138.003 147.761 132.768 148.096 131.85C148.43 131.023 148.514 130.288 148.179 130.288C147.928 130.288 146.423 133.319 144.834 136.901Z" fill="#FFD599"/>
<path d="M222.271 147.463C219.176 154.993 218.006 160.32 217.922 167.023C217.922 173.544 219.594 176.391 223.191 176.023C225.95 175.748 228.125 172.166 229.212 166.105L229.797 162.891L227.288 166.105C225.114 168.768 224.529 169.136 223.191 168.309C220.849 166.748 220.849 159.677 223.274 150.034C224.445 145.534 225.281 141.769 225.114 141.585C224.947 141.402 223.692 144.065 222.271 147.463Z" fill="#FFD599"/>
<path d="M281.065 158.023C275.712 170.512 275.211 183.369 279.978 186.308C282.068 187.502 282.403 187.502 284.243 185.573C286.25 183.461 288.173 178.043 288.173 174.737C288.09 173.359 287.839 173.543 286.835 175.472C283.49 182.359 279.141 179.145 280.145 170.421C280.396 167.757 281.567 162.431 282.654 158.482C283.741 154.625 284.494 151.411 284.243 151.411C284.075 151.411 282.654 154.441 281.065 158.023Z" fill="#FFD599"/>
<path d="M62.2902 185.572C61.3702 187.592 60.0322 190.99 59.3631 192.918C58.276 196.316 58.3596 196.592 60.1994 198.612C61.3702 199.714 65.1336 202.286 68.646 204.398L75.0019 208.255L76.5072 205.5C77.3435 204.03 78.6816 200.357 79.5179 197.327C80.7723 192.735 80.8559 191.633 79.936 190.347C78.7652 188.878 66.388 181.715 64.8827 181.715C64.4645 181.715 63.2937 183.459 62.2902 185.572Z" fill="#FFD599"/>
<path d="M124.843 183.001C124.592 183.644 124.09 187.593 123.84 191.725C123.338 197.878 123.421 199.164 124.425 199.164C125.094 199.164 126.265 201.092 127.018 203.572C129.108 209.817 135.297 220.102 144.162 231.765C148.343 237.275 152.441 243.153 153.277 244.806C154.699 247.745 154.699 247.836 152.692 250.224C150.016 253.255 141.736 258.306 135.548 260.693C128.857 263.173 120.745 263.907 114.64 262.53C104.521 260.234 98.249 255.183 91.8095 244.163C83.8647 230.663 82.9447 229.194 80.3522 227.449C72.8256 222.306 58.5249 233.051 48.9075 251.142C46.7332 255.183 42.8862 264.183 40.2101 271.254C34.2724 287.05 32.6834 290.264 29.5891 292.835C22.1461 298.897 14.2013 294.58 9.68531 281.907C6.00561 271.622 5.33657 265.836 5.4202 247.561C5.50383 233.878 5.33657 230.296 4.50028 230.571C2.99495 231.122 1.65687 237.551 0.486061 249.398C-1.60468 270.795 3.1622 291.733 12.6123 302.845C18.9682 310.284 25.4913 312.304 31.2617 308.447C35.1923 305.784 37.9521 300.458 44.3916 283.009C50.9983 265.193 52.3364 262.622 58.274 256.102C67.1388 246.367 74.2473 243.52 78.0106 248.02C78.9305 249.214 81.1885 253.255 83.112 257.02C92.0604 275.111 103.518 282.458 121.414 281.632C129.359 281.264 130.028 281.081 137.388 276.856C147.005 271.346 153.194 265.01 156.957 256.377C159.549 250.775 159.8 249.398 159.8 242.326C159.8 235.163 159.549 234.061 156.957 228.735C155.368 225.612 152.023 220.194 149.43 216.796C141.653 206.694 137.638 200.909 137.638 199.899C137.638 199.348 138.726 199.164 140.398 199.439C143.66 199.99 145.583 198.98 144.914 197.052C144.412 195.582 127.436 181.715 126.098 181.715C125.679 181.715 125.094 182.266 124.843 183.001Z" fill="#F9F9F9"/>
<path d="M36.3628 190.623C32.5158 200.082 32.4322 201.184 35.7774 203.847C40.8788 208.071 48.7399 212.938 50.5798 212.938C52.6705 212.938 54.594 209.173 55.5976 203.296C56.5175 198.061 55.6812 196.776 47.7364 190.898C44.3912 188.419 41.3806 185.939 41.046 185.388C39.9589 183.459 38.788 184.653 36.3628 190.623Z" fill="#FFD599"/>
<path d="M103.605 190.164C95.6601 205.316 92.6494 226.163 97.6672 231.948C100.009 234.704 103.605 234.704 105.863 232.04C107.535 230.02 111.466 217.898 110.713 216.979C110.462 216.796 109.292 218.265 108.037 220.285C105.612 224.326 102.769 225.153 100.761 222.398C98.7544 219.734 99.507 209.908 102.685 197.97C104.274 192.092 105.528 187.225 105.361 187.225C105.277 187.225 104.525 188.602 103.605 190.164Z" fill="#FFD599"/>
<path d="M253.212 214.5C249.867 222.765 248.863 226.99 248.863 233.602C248.863 240.673 250.452 243.428 254.132 243.061C256.223 242.877 257.143 242.142 258.23 239.571C258.982 237.826 259.819 234.887 260.153 233.142L260.655 229.928L258.481 232.867C252.543 240.948 250.369 232.867 254.299 217.071C255.386 212.571 256.223 208.806 256.055 208.623C255.888 208.439 254.634 211.102 253.212 214.5Z" fill="#FFD599"/>
<path d="M190.911 242.51C186.228 253.438 184.639 266.203 187.482 270.611C188.737 272.631 191.496 273.274 193.336 271.897C194.674 270.978 196.681 266.295 197.434 262.53L198.019 259.315L195.511 262.53C193.336 265.193 192.751 265.56 191.413 264.734C189.322 263.264 189.489 253.071 191.831 244.622C192.834 241.132 193.503 238.101 193.336 237.918C193.169 237.734 192.082 239.846 190.911 242.51Z" fill="#FFD599"/>
<path d="M67.8106 267.766C64.549 275.205 63.2109 281.266 63.2109 288.429C63.2109 293.48 63.5455 295.041 64.8835 296.51C66.6397 298.439 67.3088 298.623 69.4832 297.796C71.0721 297.061 73.6646 291.735 74.5009 287.327L75.0863 284.113L72.3266 287.602C69.734 290.817 69.3159 291 67.8106 289.806C65.5526 287.97 65.8035 280.899 68.5632 270.797C69.6504 266.48 70.4867 262.899 70.3194 262.715C70.1522 262.532 69.065 264.827 67.8106 267.766Z" fill="#FFD599"/>
<path d="M302.811 293.112C300.971 295.224 298.128 299.356 296.539 302.387C292.023 310.652 280.482 318.55 256.815 329.57C248.954 333.243 245.776 335.08 247.699 335.08C250.459 335.08 273.624 328.376 276.551 326.723C285.918 321.58 294.866 313.04 297.877 306.336C300.051 301.744 300.051 301.744 304.484 305.326C307.494 307.713 310.003 308.632 311.258 307.713C314.519 305.417 315.105 296.142 312.345 291.826C309.836 287.877 306.909 288.244 302.811 293.112ZM311.592 298.438C312.094 299.356 312.428 300.275 312.428 300.55C312.428 301.652 310.254 301.009 308.247 299.265C306.574 297.795 306.407 297.244 307.327 296.601C308.832 295.499 310.589 296.234 311.592 298.438Z" fill="#FFD599"/>
<path d="M416.672 122.967C416.149 122.967 415.888 122.7 415.888 122.167C415.888 121.644 416.149 121.383 416.672 121.383C417.184 121.383 417.44 121.644 417.44 122.167C417.44 122.7 417.184 122.967 416.672 122.967ZM418.704 122.967C418.181 122.967 417.92 122.7 417.92 122.167C417.92 121.644 418.181 121.383 418.704 121.383C419.216 121.383 419.472 121.644 419.472 122.167C419.472 122.7 419.216 122.967 418.704 122.967ZM421.68 130.711H422.736V132.007H421.52C420.421 132.007 419.632 131.602 419.152 130.791C418.64 131.282 418.005 131.527 417.248 131.527C416.309 131.527 415.563 131.175 415.008 130.471C414.549 129.874 414.32 129.143 414.32 128.279C414.32 127.244 414.635 126.412 415.264 125.783C415.797 125.239 416.448 124.967 417.216 124.967C417.803 124.967 418.309 125.116 418.736 125.415V124.727L420.128 123.991V129.111C420.128 130.178 420.645 130.711 421.68 130.711ZM418.736 126.903C418.341 126.466 417.856 126.247 417.28 126.247C416.811 126.247 416.427 126.439 416.128 126.823C415.829 127.196 415.68 127.687 415.68 128.295C415.68 128.914 415.829 129.41 416.128 129.783C416.427 130.156 416.816 130.343 417.296 130.343C417.893 130.343 418.384 130.098 418.768 129.607C418.747 129.415 418.736 129.266 418.736 129.159V126.903ZM427.606 123.127C427.083 123.127 426.822 122.86 426.822 122.327C426.822 121.804 427.083 121.543 427.606 121.543C428.118 121.543 428.374 121.804 428.374 122.327C428.374 122.86 428.118 123.127 427.606 123.127ZM424.342 132.007V130.711H425.398C426.443 130.711 426.966 130.178 426.966 129.111V125.799L428.342 125.063V129.159C428.342 130.066 428.07 130.78 427.526 131.303C427.024 131.772 426.368 132.007 425.558 132.007H424.342ZM436.559 132.007C435.631 132.007 434.916 131.708 434.415 131.111C433.988 130.599 433.775 129.948 433.775 129.159V122.423L435.151 121.687V129.111C435.151 130.178 435.674 130.711 436.719 130.711H437.775V132.007H436.559ZM441.992 127.671C441.992 126.743 442.269 126.023 442.824 125.511C443.315 125.074 443.955 124.855 444.744 124.855C445.757 124.855 446.536 125.228 447.08 125.975C447.549 126.604 447.784 127.426 447.784 128.439C447.784 129.591 447.485 130.492 446.888 131.143C446.365 131.719 445.683 132.007 444.84 132.007C443.88 132.007 443.149 131.74 442.648 131.207C442.136 131.74 441.448 132.007 440.584 132.007H439.368V130.711H440.424C441.469 130.711 441.992 130.178 441.992 129.111V127.671ZM443.368 129.223C443.368 130.215 443.853 130.711 444.824 130.711C445.325 130.711 445.715 130.508 445.992 130.103C446.28 129.698 446.424 129.132 446.424 128.407C446.424 127.692 446.275 127.138 445.976 126.743C445.677 126.338 445.267 126.135 444.744 126.135C443.827 126.135 443.368 126.668 443.368 127.735V129.223ZM452.141 121.463L452.509 120.775H452.941C452.834 120.583 452.781 120.386 452.781 120.183C452.781 119.863 452.898 119.591 453.133 119.367C453.367 119.132 453.645 119.015 453.965 119.015C454.231 119.015 454.487 119.1 454.733 119.271V119.975C454.498 119.794 454.274 119.703 454.061 119.703C453.666 119.703 453.469 119.879 453.469 120.231C453.469 120.412 453.543 120.594 453.693 120.775H455.149L454.781 121.463H452.141ZM452.989 132.007V123.063L454.365 122.327V132.007H452.989Z" fill="#FFD599"/>
<path d="M430.04 43.7008H438.84L457.48 94.3408H446.84C445.933 91.6742 444.813 88.1542 443.48 83.7808H425.32C424.573 86.1808 423.427 89.7008 421.88 94.3408H411.4L430.04 43.7008ZM434.52 57.3808C433.027 61.5942 430.973 67.5142 428.36 75.1408H440.52C438.013 67.7808 436.013 61.8608 434.52 57.3808Z" fill="#F9F9F9"/>
<path d="M553.66 49.1236H561.36L577.67 93.4336H568.36C567.567 91.1003 566.587 88.0203 565.42 84.1936H549.53C548.877 86.2936 547.873 89.3736 546.52 93.4336H537.35L553.66 49.1236ZM557.58 61.0936C556.273 64.7803 554.477 69.9603 552.19 76.6336H562.83C560.637 70.1936 558.887 65.0136 557.58 61.0936ZM594.746 63.7536V93.4336H585.716V49.1236H593.346C600.812 58.8303 608.232 69.0269 615.606 79.7136V49.1236H624.776V93.4336H616.936C612.549 88.2536 605.152 78.3603 594.746 63.7536ZM649.12 49.1236H656.82L673.13 93.4336H663.82C663.026 91.1003 662.046 88.0203 660.88 84.1936H644.99C644.336 86.2936 643.333 89.3736 641.98 93.4336H632.81L649.12 49.1236ZM653.04 61.0936C651.733 64.7803 649.936 69.9603 647.65 76.6336H658.29C656.096 70.1936 654.346 65.0136 653.04 61.0936Z" fill="#F9F9F9"/>
<path d="M490.063 40.7712C486.769 41.6445 484.342 44.5025 483.556 48.4454C483.282 49.8083 483.385 52.0576 483.784 53.5131C485.265 58.8585 489.675 64.8788 496.331 70.6609C497.88 72.0106 497.96 72.0635 498.587 72.0635C499.134 72.0635 499.681 71.6665 501.801 69.748C507.954 64.1776 512.011 58.3954 513.322 53.3411C513.755 51.6871 513.778 49.3319 513.379 47.85C513.105 46.7915 512.479 45.2567 512.103 44.6877C510.063 41.618 506.872 40.1097 503.852 40.7712C502.154 41.1417 500.741 42.015 499.328 43.5895L498.576 44.4363L498.154 43.8938C497.185 42.6501 495.328 41.3666 493.823 40.8903C492.889 40.5992 490.929 40.5331 490.063 40.7712ZM493.071 44.7407C494.621 45.217 495.829 46.3946 496.718 48.2602C497.345 49.5701 497.766 49.9671 498.541 49.9671C499.237 49.9671 499.715 49.6098 500.103 48.8159C501.174 46.593 502.131 45.5345 503.601 44.9524C506.108 43.9468 508.729 45.1641 509.858 47.8765C510.655 49.7818 510.564 51.5548 509.55 54.0291C508.467 56.6754 507.02 58.8982 504.399 61.8885C502.063 64.5613 498.883 67.6971 498.507 67.6971C498.313 67.6971 496.103 65.6463 494.45 63.9262C487.784 56.9797 485.459 51.3563 487.567 47.3075C488.194 46.0903 489.333 45.0714 490.45 44.7274C491.168 44.5025 492.331 44.5025 493.071 44.7407Z" fill="#FFD599"/>
<path d="M472.901 53.8563C471.624 54.2665 470.382 55.4706 469.847 56.7805C469.414 57.8522 469.345 59.3209 469.414 66.5056C469.482 73.4653 469.55 74.6958 470.052 77.3421C470.565 80.0413 471.351 82.5288 472.513 85.1353C474.109 88.6946 475.738 91.1821 480.65 97.5332C483.339 101.013 483.613 101.754 483.624 105.498C483.624 107.033 483.636 107.126 483.921 107.523C484.764 108.674 486.166 108.542 486.724 107.258C487.055 106.504 487.009 103.183 486.656 101.542C486.143 99.1871 485.596 98.208 482.644 94.2915C479.499 90.1236 478.735 89.0783 477.847 87.6758C475.488 83.9445 474.052 80.3059 473.322 76.1645C472.821 73.3197 472.775 72.3538 472.753 65.2221L472.741 58.4609L473.015 58.1168C473.425 57.6141 473.938 57.4553 474.428 57.6934C475.225 58.0772 475.214 57.9845 475.248 63.6873C475.294 69.1121 475.385 70.5544 475.818 72.592C476.855 77.4082 478.849 81.285 481.493 83.6137C481.949 84.0107 483.009 84.8178 483.864 85.4C484.707 85.9822 485.835 86.829 486.359 87.2921C487.556 88.3109 487.898 88.4432 488.582 88.0859C489.402 87.6625 489.744 86.7099 489.436 85.744C489.368 85.5455 487.636 83.402 485.573 80.9939C483.522 78.5726 481.755 76.3894 481.653 76.1248C481.55 75.8734 481.459 75.4103 481.459 75.106C481.459 74.6561 481.527 74.4708 481.835 74.1136C482.28 73.5976 482.656 73.452 483.225 73.5711C483.545 73.6505 484.263 74.4312 487.624 78.4138C489.835 81.0204 491.864 83.5343 492.137 83.9974C492.844 85.1618 493.493 86.6834 493.79 87.9007C494.018 88.7872 494.052 89.2371 494.052 91.1159C494.04 93.1139 494.006 93.5373 493.562 96.21C492.183 104.559 491.909 106.491 492.046 107.007C492.422 108.462 494.348 108.767 495.066 107.496C495.26 107.152 495.408 106.332 496.274 100.947C497.539 93.0213 497.71 91.0365 497.368 88.7343C496.992 86.26 495.943 83.4285 494.701 81.5099C493.664 79.9222 485.949 70.8851 485.254 70.4485C483.385 69.2577 481.049 69.5488 479.613 71.1498C479.351 71.4276 479.123 71.6393 479.089 71.5996C479.055 71.5599 478.952 71.1365 478.872 70.647C478.747 69.9854 478.678 68.1727 478.621 63.8593C478.53 57.495 478.542 57.6008 477.869 56.2645C476.901 54.3459 474.713 53.2874 472.901 53.8563Z" fill="#FFD599"/>
<path d="M522.028 53.8568C521.139 54.1347 520.626 54.4919 519.92 55.3255C519.202 56.1459 518.814 56.9398 518.609 57.9321C518.552 58.2497 518.495 60.7239 518.495 63.5951C518.495 68.5966 518.381 70.5416 518.051 71.5472L517.948 71.8912L517.31 71.2032C515.828 69.5757 513.982 69.2185 512.136 70.2108C511.464 70.5681 511.156 70.8856 509.606 72.7645C508.638 73.9421 506.712 76.2179 505.333 77.8189C502.575 81.0076 501.675 82.3573 500.831 84.5934C499.532 88.0203 499.304 90.7724 499.965 95.2182C500.831 101.027 501.857 107.179 502.028 107.47C502.358 108.066 502.871 108.344 503.544 108.278C504.068 108.238 504.216 108.158 504.569 107.735C504.979 107.259 504.991 107.232 504.979 106.227C504.979 105.592 504.774 103.991 504.444 101.966C503.407 95.5754 502.997 92.5057 502.997 90.9841C502.997 88.5628 503.646 86.2208 504.957 84.0112C505.766 82.6086 513.242 73.8495 513.789 73.6378C514.29 73.4525 514.86 73.6642 515.247 74.1935C515.601 74.6963 515.692 75.0932 515.589 75.7416C515.521 76.165 515.008 76.8265 511.658 80.7298C509.538 83.2041 507.749 85.374 507.669 85.546C507.293 86.4061 507.646 87.663 508.387 88.1394C509.093 88.576 509.629 88.3908 511.031 87.2132C511.703 86.6575 513.059 85.5989 514.039 84.8712C516.239 83.2438 516.581 82.913 517.481 81.6163C519.304 78.9965 520.581 76.0194 521.299 72.7248C521.789 70.4755 521.914 68.5966 521.914 63.3041V58.4614L522.267 58.0512C522.837 57.3896 523.828 57.5219 524.227 58.3026C524.398 58.6334 524.421 59.3214 524.421 64.8786C524.421 72.5925 524.25 74.6301 523.236 78.7451C522.073 83.4819 520.227 86.8956 515.601 92.8894C514.598 94.1993 513.401 95.7474 512.945 96.3164C511.031 98.8039 510.176 101.503 510.176 105.062C510.176 106.928 510.393 107.55 511.224 108.026C511.68 108.291 511.806 108.317 512.205 108.198C512.706 108.039 513.185 107.642 513.39 107.219C513.481 107.047 513.561 106.055 513.606 104.745C513.72 101.516 514.005 100.762 516.17 97.9174C516.797 97.1103 518.017 95.496 518.905 94.3449C524.296 87.2793 526.564 82.0529 527.452 74.6434C527.601 73.3864 527.646 71.5869 527.692 66.1091C527.76 58.5143 527.715 57.6675 527.179 56.5296C526.199 54.439 523.908 53.2482 522.028 53.8568Z" fill="#FFD599"/>
</svg>
