<svg width="170" height="170" viewBox="0 0 170 170" fill="none" xmlns="http://www.w3.org/2000/svg">
<path opacity="0.4" d="M137.066 40.0917L92.5123 16.0795C87.8373 13.5295 82.1706 13.5295 77.4247 16.0795L32.8707 40.0917C29.6124 41.8625 27.6289 45.3335 27.6289 49.1585C27.6289 52.9835 29.6124 56.4541 32.8707 58.225L77.4247 82.2376C79.7622 83.5126 82.383 84.1502 84.933 84.1502C87.483 84.1502 90.1039 83.5126 92.4414 82.2376L136.996 58.225C140.254 56.4541 142.237 52.9835 142.237 49.1585C142.379 45.3335 140.325 41.8625 137.066 40.0917Z" fill="#01321F"/>
<path opacity="0.4" d="M70.1239 90.5954L28.6864 69.8412C25.4989 68.2121 21.8156 68.4246 18.7697 70.2662C15.7239 72.1079 13.9531 75.3664 13.9531 78.9081V118.079C13.9531 124.879 17.7072 130.97 23.7988 134.016L65.2364 154.7C66.653 155.408 68.2115 155.762 69.7698 155.762C71.6115 155.762 73.4531 155.266 75.0823 154.204C78.1282 152.362 79.8989 149.104 79.8989 145.562V106.391C79.9698 99.7331 76.2156 93.6412 70.1239 90.5954Z" fill="#01321F"/>
<path opacity="0.4" d="M156.046 78.9801V111.492C155.975 111.421 155.904 111.28 155.834 111.209C155.834 111.138 155.763 111.067 155.692 110.996C155.409 110.571 155.054 110.147 154.7 109.792C154.629 109.722 154.559 109.58 154.488 109.509C148.75 103.134 140.321 99.1674 131.042 99.1674C122.117 99.1674 113.971 102.851 108.163 108.801C102.567 114.538 99.1669 122.401 99.1669 131.042C99.1669 136.992 100.867 142.659 103.771 147.476C104.975 149.53 106.463 151.371 108.092 153.071L104.763 154.771C103.346 155.48 101.788 155.834 100.229 155.834C98.3876 155.834 96.5461 155.338 94.8461 154.276C91.8711 152.434 90.0293 149.176 90.0293 145.634V106.534C90.0293 99.7339 93.7836 93.6422 99.8752 90.5964L141.313 69.9132C144.5 68.284 148.184 68.4257 151.229 70.3382C154.204 72.1798 156.046 75.4384 156.046 78.9801Z" fill="#01321F"/>
<path d="M155.693 110.996C149.885 103.842 141.03 99.3086 131.043 99.3086C123.535 99.3086 116.593 101.929 111.139 106.321C103.772 112.129 99.168 121.125 99.168 131.184C99.168 137.134 100.868 142.8 103.772 147.617C105.685 150.804 108.093 153.567 110.926 155.833H110.997C116.451 160.367 123.464 163.059 131.043 163.059C139.118 163.059 146.414 160.084 152.01 155.125C154.489 153 156.614 150.45 158.314 147.617C161.218 142.8 162.918 137.134 162.918 131.184C162.918 123.534 160.226 116.45 155.693 110.996ZM147.051 127.217L130.051 142.942C129.06 143.863 127.714 144.358 126.439 144.358C125.093 144.358 123.747 143.862 122.685 142.8L114.822 134.938C112.768 132.883 112.768 129.483 114.822 127.429C116.876 125.375 120.276 125.375 122.33 127.429L126.58 131.679L139.826 119.425C141.951 117.442 145.351 117.584 147.335 119.709C149.389 121.904 149.247 125.234 147.051 127.217Z" fill="#01321F"/>
</svg>
