<svg width="180" height="180" viewBox="0 0 180 180" fill="none" xmlns="http://www.w3.org/2000/svg">
<path opacity="0.4" d="M157.805 53.925L90.0051 93.15L22.2051 53.925C25.2051 48.375 29.5551 43.5 34.4301 40.8L74.4801 18.6C83.0301 13.8 96.9801 13.8 105.53 18.6L145.58 40.8C150.455 43.5 154.805 48.375 157.805 53.925Z" fill="#01321F"/>
<path opacity="0.6" d="M90.0047 93.1498V165C84.3797 165 78.7547 163.8 74.4797 161.4L34.4297 139.2C25.3547 134.175 17.9297 121.575 17.9297 111.225V68.7748C17.9297 63.9748 19.5797 58.7248 22.2047 53.9248L90.0047 93.1498Z" fill="#01321F"/>
<path d="M162.079 68.7748V111.225C162.079 121.575 154.654 134.175 145.579 139.2L105.529 161.4C101.254 163.8 95.6289 165 90.0039 165V93.1498L157.804 53.9248C160.429 58.7248 162.079 63.9748 162.079 68.7748Z" fill="#01321F"/>
</svg>
