<svg width="170" height="170" viewBox="0 0 170 170" fill="none" xmlns="http://www.w3.org/2000/svg">
<path opacity="0.4" d="M106.251 161.146C104.339 161.146 102.568 160.083 101.647 158.454C100.726 156.825 100.726 154.771 101.718 153.142L109.155 140.746C110.643 138.196 113.901 137.417 116.451 138.904C119.001 140.392 119.78 143.65 118.293 146.2L116.38 149.388C135.93 144.784 150.593 127.217 150.593 106.25C150.593 103.346 153.001 100.938 155.905 100.938C158.809 100.938 161.218 103.346 161.218 106.25C161.147 136.496 136.497 161.146 106.251 161.146Z" fill="#01321F"/>
<path opacity="0.4" d="M14.166 69.0628C11.2618 69.0628 8.85352 66.6545 8.85352 63.7503C8.85352 33.5045 33.5035 8.85449 63.7494 8.85449C65.6619 8.85449 67.4326 9.91703 68.3535 11.5462C69.2743 13.1754 69.2743 15.2295 68.2827 16.8587L60.8452 29.2545C59.3577 31.8045 56.0993 32.5838 53.5493 31.0963C50.9993 29.6088 50.2202 26.3502 51.7077 23.8002L53.6202 20.6126C34.0702 25.2168 19.4077 42.7837 19.4077 63.7503C19.4786 66.6545 17.0702 69.0628 14.166 69.0628Z" fill="#01321F"/>
<path d="M75.5792 98.1039L53.3376 86.133C51.0001 84.858 48.1668 84.858 45.8293 86.133L23.5876 98.1039C21.9584 98.9539 20.9668 100.725 20.9668 102.637C20.9668 104.55 21.9584 106.321 23.5876 107.171L45.8293 119.142C47.0334 119.779 48.3084 120.062 49.5834 120.062C50.8584 120.062 52.1334 119.779 53.3376 119.142L75.5792 107.171C77.2084 106.321 78.2 104.55 78.2 102.637C78.2 100.725 77.1376 99.0247 75.5792 98.1039Z" fill="#01321F"/>
<path d="M42.1456 123.321L21.4623 112.979C19.904 112.2 18.0623 112.271 16.504 113.191C15.0165 114.112 14.0957 115.742 14.0957 117.513V137.062C14.0957 140.462 15.9373 143.508 18.9831 144.996L39.6665 155.337C40.3749 155.691 41.154 155.904 41.9331 155.904C42.854 155.904 43.7749 155.621 44.6249 155.125C46.1124 154.204 47.0332 152.575 47.0332 150.804V131.254C47.104 127.854 45.1915 124.808 42.1456 123.321Z" fill="#01321F"/>
<path d="M82.5917 113.191C81.1042 112.271 79.2625 112.2 77.6333 112.979L56.9499 123.321C53.9041 124.808 52.0625 127.854 52.0625 131.254V150.804C52.0625 152.575 52.9833 154.204 54.4708 155.125C55.3208 155.621 56.2417 155.904 57.1625 155.904C57.9417 155.904 58.7208 155.691 59.4291 155.337L80.1124 144.996C83.1583 143.508 85 140.462 85 137.062V117.513C85 115.742 84.0792 114.112 82.5917 113.191Z" fill="#01321F"/>
<path d="M146.413 27.1292L124.172 15.1584C121.834 13.8834 119.001 13.8834 116.663 15.1584L94.4216 27.1292C92.7924 27.9792 91.8008 29.7498 91.8008 31.6623C91.8008 33.5748 92.7924 35.3457 94.4216 36.1957L116.663 48.1665C117.867 48.804 119.142 49.0874 120.417 49.0874C121.692 49.0874 122.967 48.804 124.172 48.1665L146.413 36.1957C148.042 35.3457 149.034 33.5748 149.034 31.6623C149.034 29.6789 147.972 27.9792 146.413 27.1292Z" fill="#01321F"/>
<path d="M112.98 52.2749L92.2963 41.933C90.738 41.1539 88.8963 41.2249 87.338 42.1458C85.8505 43.0666 84.9297 44.6957 84.9297 46.4665V66.0166C84.9297 69.4166 86.7713 72.4624 89.8171 73.9499L110.501 84.2917C111.209 84.6458 111.988 84.858 112.767 84.858C113.688 84.858 114.609 84.5748 115.459 84.079C116.946 83.1581 117.867 81.5291 117.867 79.7582V60.2082C117.938 56.8082 116.025 53.7624 112.98 52.2749Z" fill="#01321F"/>
<path d="M153.426 42.1458C151.938 41.2249 150.096 41.1539 148.467 41.933L127.784 52.2749C124.738 53.7624 122.896 56.8082 122.896 60.2082V79.7582C122.896 81.5291 123.817 83.1581 125.305 84.079C126.155 84.5748 127.076 84.858 127.996 84.858C128.776 84.858 129.555 84.6458 130.263 84.2917L150.946 73.9499C153.992 72.4624 155.834 69.4166 155.834 66.0166V46.4665C155.834 44.6957 154.913 43.0666 153.426 42.1458Z" fill="#01321F"/>
</svg>
