<svg width="20" height="30" viewBox="0 0 20 30" fill="none" xmlns="http://www.w3.org/2000/svg">
<g clip-path="url(#clip0_181_1587)">
<path d="M0.578125 0H19.3281V30H0.578125V0Z" stroke="#E5E7EB"/>
<path d="M9.95297 0C10.9901 0 11.828 0.837891 11.828 1.875V3.9668C11.9217 3.97852 12.0096 3.99023 12.1034 4.00781C12.1268 4.01367 12.1444 4.01367 12.1678 4.01953L14.9803 4.53516C15.9998 4.72266 16.6737 5.70117 16.4862 6.71484C16.2987 7.72852 15.3202 8.4082 14.3065 8.2207L11.5233 7.71094C9.68929 7.44141 8.07211 7.62305 6.93539 8.07422C5.79867 8.52539 5.34164 9.14648 5.23617 9.7207C5.11898 10.3477 5.20687 10.6992 5.30648 10.916C5.41195 11.1445 5.62875 11.4023 6.05648 11.6895C7.01156 12.3164 8.4764 12.7266 10.3748 13.2305L10.5448 13.2773C12.2205 13.7227 14.2713 14.2617 15.7948 15.2578C16.6268 15.8027 17.4119 16.541 17.8983 17.5723C18.3963 18.6211 18.5018 19.793 18.2733 21.041C17.869 23.2676 16.3338 24.7559 14.4295 25.5352C13.6268 25.8633 12.7537 26.0742 11.828 26.1797V28.125C11.828 29.1621 10.9901 30 9.95297 30C8.91586 30 8.07797 29.1621 8.07797 28.125V26.0801C8.05453 26.0742 8.02523 26.0742 8.00179 26.0684H7.99007C6.56039 25.8457 4.21078 25.2305 2.62875 24.5273C1.68539 24.1055 1.25765 22.998 1.67953 22.0547C2.1014 21.1113 3.20882 20.6836 4.15218 21.1055C5.37679 21.6504 7.39242 22.1895 8.55843 22.3711C10.4276 22.6465 11.9686 22.4883 13.0116 22.0605C14.0018 21.6562 14.453 21.0703 14.5819 20.3672C14.6932 19.7461 14.6053 19.3887 14.5057 19.1719C14.3944 18.9375 14.1776 18.6797 13.744 18.3926C12.783 17.7656 11.3123 17.3555 9.40804 16.8516L9.24398 16.8105C7.57406 16.3652 5.52328 15.8203 3.99984 14.8242C3.16781 14.2793 2.38851 13.5352 1.90218 12.5039C1.41 11.4551 1.31039 10.2832 1.54476 9.03516C1.96664 6.79688 3.64242 5.34375 5.54672 4.58789C6.32601 4.27734 7.18148 4.06641 8.07797 3.94336V1.875C8.07797 0.837891 8.91586 0 9.95297 0Z" fill="#01321F"/>
</g>
<defs>
<clipPath id="clip0_181_1587">
<rect width="18.75" height="30" fill="white" transform="translate(0.578125)"/>
</clipPath>
</defs>
</svg>
