<svg width="35" height="30" viewBox="0 0 35 30" fill="none" xmlns="http://www.w3.org/2000/svg">
<g clip-path="url(#clip0_181_1578)">
<g clip-path="url(#clip1_181_1578)">
<path d="M9.57812 4.48828C9.57812 2.00977 11.5879 0 14.0664 0C15.2559 0 16.3984 0.474609 17.2363 1.3125L17.7812 1.85742L18.3262 1.3125C19.1641 0.474609 20.3066 0 21.4961 0C23.9746 0 25.9844 2.00977 25.9844 4.48828C25.9844 5.67773 25.5098 6.82031 24.6719 7.6582L18.6074 13.7168C18.1504 14.1738 17.4062 14.1738 16.9492 13.7168L10.8906 7.6582C10.0527 6.82031 9.57812 5.67773 9.57812 4.48828ZM34.1992 19.7051C34.9668 20.748 34.7441 22.2129 33.7012 22.9805L26.2832 28.4473C24.9121 29.4551 23.2598 30 21.5547 30H12.1562H2.78125C1.74414 30 0.90625 29.1621 0.90625 28.125V24.375C0.90625 23.3379 1.74414 22.5 2.78125 22.5H4.9375L7.56836 20.3906C8.89844 19.3242 10.5508 18.75 12.2559 18.75H16.8437H17.7812H21.5312C22.5684 18.75 23.4062 19.5879 23.4062 20.625C23.4062 21.6621 22.5684 22.5 21.5312 22.5H17.7812H16.8437C16.3281 22.5 15.9062 22.9219 15.9062 23.4375C15.9062 23.9531 16.3281 24.375 16.8437 24.375H23.9102L30.9238 19.207C31.9668 18.4395 33.4316 18.6621 34.1992 19.7051ZM12.25 22.5H12.1973C12.2148 22.5 12.2324 22.5 12.25 22.5Z" fill="white"/>
</g>
</g>
<defs>
<clipPath id="clip0_181_1578">
<rect width="33.75" height="30" fill="white" transform="translate(0.90625)"/>
</clipPath>
<clipPath id="clip1_181_1578">
<path d="M0.90625 0H34.6562V30H0.90625V0Z" fill="white"/>
</clipPath>
</defs>
</svg>
