<svg width="25" height="25" viewBox="0 0 25 25" fill="none" xmlns="http://www.w3.org/2000/svg">
<g clip-path="url(#clip0_58_6328)">
<path d="M3.12559 3.875C3.12559 3.37772 3.32313 2.90081 3.67476 2.54917C4.02639 2.19754 4.5033 2 5.00059 2C5.49787 2 5.97478 2.19754 6.32641 2.54917C6.67804 2.90081 6.87559 3.37772 6.87559 3.875C6.87559 4.37228 6.67804 4.84919 6.32641 5.20083C5.97478 5.55246 5.49787 5.75 5.00059 5.75C4.5033 5.75 4.02639 5.55246 3.67476 5.20083C3.32313 4.84919 3.12559 4.37228 3.12559 3.875ZM5.62559 11.4414V13.9844L7.61777 15.9766C7.89512 16.2539 8.07871 16.6094 8.14121 16.9961L8.73496 20.5469C8.84824 21.2266 8.3873 21.8711 7.70762 21.9844C7.02793 22.0977 6.3834 21.6367 6.27012 20.957L5.71152 17.6016L2.60996 14.5C2.14121 14.0312 1.87559 13.3945 1.87559 12.7305V9.28906C1.87559 8.02344 2.89902 7 4.16465 7C5.10605 7 5.98105 7.46875 6.50449 8.25L8.35605 11.0273L8.75059 11.2227V8.25C8.75059 7.55859 9.30918 7 10.0006 7H15.0006C15.692 7 16.2506 7.55859 16.2506 8.25V11.2266L16.6451 11.0312L18.4967 8.25C19.0162 7.46875 19.8951 7 20.8365 7C22.1021 7 23.1256 8.02344 23.1256 9.28906V12.7305C23.1256 13.3945 22.8639 14.0312 22.3951 14.5L19.2936 17.6016L18.735 20.957C18.6217 21.6367 17.9771 22.0977 17.2975 21.9844C16.6178 21.8711 16.1568 21.2266 16.2701 20.5469L16.8639 16.9961C16.9264 16.6094 17.11 16.2539 17.3873 15.9766L19.3795 13.9844V11.4414L18.6373 12.5547C18.4576 12.8281 18.2076 13.0469 17.9146 13.1914L15.5865 14.3555C15.4928 14.4062 15.3951 14.4414 15.2896 14.4648C15.1881 14.4883 15.0826 14.5 14.9811 14.4961H10.0279C9.93027 14.5 9.83262 14.4883 9.73496 14.4688C9.62168 14.4453 9.51621 14.4062 9.41855 14.3516L7.09434 13.1875C6.80137 13.043 6.55527 12.8203 6.37168 12.5508L5.62949 11.4375L5.62559 11.4414ZM0.0904288 20.2852L1.95762 15.6172L3.87949 17.5391L2.41074 21.2109C2.15293 21.8516 1.42637 22.1641 0.785741 21.9062C0.145116 21.6484 -0.167384 20.9258 0.0904288 20.2852ZM20.0006 2C20.4979 2 20.9748 2.19754 21.3264 2.54917C21.678 2.90081 21.8756 3.37772 21.8756 3.875C21.8756 4.37228 21.678 4.84919 21.3264 5.20083C20.9748 5.55246 20.4979 5.75 20.0006 5.75C19.5033 5.75 19.0264 5.55246 18.6748 5.20083C18.3231 4.84919 18.1256 4.37228 18.1256 3.875C18.1256 3.37772 18.3231 2.90081 18.6748 2.54917C19.0264 2.19754 19.5033 2 20.0006 2ZM23.0436 15.6172L24.9107 20.2852C25.1686 20.9258 24.8561 21.6523 24.2154 21.9102C23.5748 22.168 22.8482 21.8555 22.5904 21.2148L21.1217 17.543L23.0436 15.6211V15.6172Z" fill="black"/>
</g>
<defs>
<clipPath id="clip0_58_6328">
<path d="M0 2H25V22H0V2Z" fill="white"/>
</clipPath>
</defs>
</svg>
