<svg width="13" height="20" viewBox="0 0 13 20" fill="none" xmlns="http://www.w3.org/2000/svg">
<path d="M6.25055 0C6.94195 0 7.50055 0.558594 7.50055 1.25V2.64453C7.56305 2.65234 7.62164 2.66016 7.68414 2.67188C7.69976 2.67578 7.71148 2.67578 7.72711 2.67969L9.60211 3.02344C10.2818 3.14844 10.731 3.80078 10.606 4.47656C10.481 5.15234 9.82867 5.60547 9.15289 5.48047L7.29742 5.14062C6.07476 4.96094 4.99664 5.08203 4.23883 5.38281C3.48101 5.68359 3.17633 6.09766 3.10601 6.48047C3.02789 6.89844 3.08648 7.13281 3.15289 7.27734C3.2232 7.42969 3.36773 7.60156 3.65289 7.79297C4.28961 8.21094 5.26617 8.48438 6.53179 8.82031L6.64508 8.85156C7.76226 9.14844 9.12945 9.50781 10.1451 10.1719C10.6998 10.5352 11.2232 11.0273 11.5474 11.7148C11.8795 12.4141 11.9498 13.1953 11.7974 14.0273C11.5279 15.5117 10.5045 16.5039 9.23492 17.0234C8.69976 17.2422 8.11773 17.3828 7.50055 17.4531V18.75C7.50055 19.4414 6.94195 20 6.25055 20C5.55914 20 5.00054 19.4414 5.00054 18.75V17.3867C4.98492 17.3828 4.96539 17.3828 4.94976 17.3789H4.94195C3.98883 17.2305 2.42242 16.8203 1.36773 16.3516C0.738826 16.0703 0.45367 15.332 0.73492 14.7031C1.01617 14.0742 1.75445 13.7891 2.38336 14.0703C3.19976 14.4336 4.54351 14.793 5.32086 14.9141C6.56695 15.0977 7.5943 14.9922 8.28961 14.707C8.94976 14.4375 9.25054 14.0469 9.33648 13.5781C9.4107 13.1641 9.35211 12.9258 9.2857 12.7812C9.21148 12.625 9.06695 12.4531 8.77789 12.2617C8.13726 11.8438 7.15679 11.5703 5.88726 11.2344L5.77789 11.207C4.66461 10.9102 3.29742 10.5469 2.28179 9.88281C1.72711 9.51953 1.20758 9.02344 0.883357 8.33594C0.555232 7.63672 0.488826 6.85547 0.645076 6.02344C0.926326 4.53125 2.04351 3.5625 3.31304 3.05859C3.83258 2.85156 4.40289 2.71094 5.00054 2.62891V1.25C5.00054 0.558594 5.55914 0 6.25055 0Z" fill="black"/>
</svg>
