<svg width="25" height="25" viewBox="0 0 25 25" fill="none" xmlns="http://www.w3.org/2000/svg">
<g clip-path="url(#clip0_58_6308)">
<path d="M5.625 2C6.4538 2 7.24866 2.32924 7.83471 2.91529C8.42076 3.50134 8.75 4.2962 8.75 5.125C8.75 5.9538 8.42076 6.74866 7.83471 7.33471C7.24866 7.92076 6.4538 8.25 5.625 8.25C4.7962 8.25 4.00134 7.92076 3.41529 7.33471C2.82924 6.74866 2.5 5.9538 2.5 5.125C2.5 4.2962 2.82924 3.50134 3.41529 2.91529C4.00134 2.32924 4.7962 2 5.625 2ZM20 2C20.8288 2 21.6237 2.32924 22.2097 2.91529C22.7958 3.50134 23.125 4.2962 23.125 5.125C23.125 5.9538 22.7958 6.74866 22.2097 7.33471C21.6237 7.92076 20.8288 8.25 20 8.25C19.1712 8.25 18.3763 7.92076 17.7903 7.33471C17.2042 6.74866 16.875 5.9538 16.875 5.125C16.875 4.2962 17.2042 3.50134 17.7903 2.91529C18.3763 2.32924 19.1712 2 20 2ZM0 13.668C0 11.3672 1.86719 9.5 4.16797 9.5H5.83594C6.45703 9.5 7.04688 9.63672 7.57812 9.87891C7.52734 10.1602 7.50391 10.4531 7.50391 10.75C7.50391 12.2422 8.16016 13.582 9.19531 14.5C9.1875 14.5 9.17969 14.5 9.16797 14.5H0.832031C0.375 14.5 0 14.125 0 13.668ZM15.832 14.5C15.8242 14.5 15.8164 14.5 15.8047 14.5C16.8438 13.582 17.4961 12.2422 17.4961 10.75C17.4961 10.4531 17.4688 10.1641 17.4219 9.87891C17.9531 9.63281 18.543 9.5 19.1641 9.5H20.832C23.1328 9.5 25 11.3672 25 13.668C25 14.1289 24.625 14.5 24.168 14.5H15.832ZM8.75 10.75C8.75 9.75544 9.14509 8.80161 9.84835 8.09835C10.5516 7.39509 11.5054 7 12.5 7C13.4946 7 14.4484 7.39509 15.1517 8.09835C15.8549 8.80161 16.25 9.75544 16.25 10.75C16.25 11.7446 15.8549 12.6984 15.1517 13.4017C14.4484 14.1049 13.4946 14.5 12.5 14.5C11.5054 14.5 10.5516 14.1049 9.84835 13.4017C9.14509 12.6984 8.75 11.7446 8.75 10.75ZM5 20.957C5 18.082 7.33203 15.75 10.207 15.75H14.793C17.668 15.75 20 18.082 20 20.957C20 21.5312 19.5352 22 18.957 22H6.04297C5.46875 22 5 21.5352 5 20.957Z" fill="black"/>
</g>
<defs>
<clipPath id="clip0_58_6308">
<path d="M0 2H25V22H0V2Z" fill="white"/>
</clipPath>
</defs>
</svg>
