<svg width="23" height="25" viewBox="0 0 23 25" fill="none" xmlns="http://www.w3.org/2000/svg">
<g clip-path="url(#clip0_58_6298)">
<path d="M5.78125 4.99219C5.78125 3.33984 7.12109 2 8.77344 2C9.56641 2 10.3281 2.31641 10.8867 2.875L11.25 3.23828L11.6133 2.875C12.1719 2.31641 12.9336 2 13.7266 2C15.3789 2 16.7188 3.33984 16.7188 4.99219C16.7188 5.78516 16.4023 6.54688 15.8438 7.10547L11.8008 11.1445C11.4961 11.4492 11 11.4492 10.6953 11.1445L6.65625 7.10547C6.09766 6.54688 5.78125 5.78516 5.78125 4.99219ZM22.1953 15.1367C22.707 15.832 22.5586 16.8086 21.8633 17.3203L16.918 20.9648C16.0039 21.6367 14.9023 22 13.7656 22H7.5H1.25C0.558594 22 0 21.4414 0 20.75V18.25C0 17.5586 0.558594 17 1.25 17H2.6875L4.44141 15.5938C5.32812 14.8828 6.42969 14.5 7.56641 14.5H10.625H11.25H13.75C14.4414 14.5 15 15.0586 15 15.75C15 16.4414 14.4414 17 13.75 17H11.25H10.625C10.2812 17 10 17.2812 10 17.625C10 17.9688 10.2812 18.25 10.625 18.25H15.3359L20.0117 14.8047C20.707 14.293 21.6836 14.4414 22.1953 15.1367ZM7.5625 17H7.52734C7.53906 17 7.55078 17 7.5625 17Z" fill="black"/>
</g>
<defs>
<clipPath id="clip0_58_6298">
<path d="M0 2H22.5V22H0V2Z" fill="white"/>
</clipPath>
</defs>
</svg>
