<svg width="22" height="33" viewBox="0 0 22 33" fill="none" xmlns="http://www.w3.org/2000/svg">
<g clip-path="url(#clip0_61_9040)">
<path d="M17.0434 8.05898C17.6293 7.47305 17.6293 6.52148 17.0434 5.93555C16.4574 5.34961 15.5059 5.34961 14.9199 5.93555L8.48398 12.3762L5.79336 9.68555C5.20742 9.09961 4.25586 9.09961 3.66992 9.68555C3.08398 10.2715 3.08398 11.223 3.66992 11.809L7.41992 15.559C8.00586 16.1449 8.95742 16.1449 9.54336 15.559L17.0434 8.05898ZM21.5434 14.059C22.1293 13.473 22.1293 12.5215 21.5434 11.9355C20.9574 11.3496 20.0059 11.3496 19.4199 11.9355L8.48398 22.8762L3.54336 17.9402C2.95742 17.3543 2.00586 17.3543 1.41992 17.9402C0.833984 18.5262 0.833984 19.4777 1.41992 20.0637L7.41992 26.0637C8.00586 26.6496 8.95742 26.6496 9.54336 26.0637L21.5434 14.0637V14.059Z" fill="#01321F"/>
</g>
<defs>
<clipPath id="clip0_61_9040">
<path d="M0.984375 4H21.9844V28H0.984375V4Z" fill="white"/>
</clipPath>
</defs>
</svg>
