<svg width="25" height="33" viewBox="0 0 25 33" fill="none" xmlns="http://www.w3.org/2000/svg">
<g clip-path="url(#clip0_61_9010)">
<path d="M7.99594 22.043L6.54751 20.5946C6.14907 20.1961 6.00844 19.6196 6.18657 19.0852C6.32719 18.668 6.51469 18.1242 6.73969 17.5008H1.78032C1.37719 17.5008 1.00219 17.2852 0.800631 16.9336C0.599069 16.5821 0.603756 16.1508 0.810006 15.8039L3.27094 11.6555C3.88032 10.6289 4.98188 10.0008 6.17251 10.0008H10.0303C10.1428 9.81331 10.2553 9.63987 10.3678 9.47112C14.2069 3.80862 19.9256 3.62112 23.3381 4.24925C23.8819 4.34768 24.3038 4.77425 24.4069 5.318C25.035 8.73518 24.8428 14.4492 19.185 18.2883C19.0209 18.4008 18.8428 18.5133 18.6553 18.6258V22.4836C18.6553 23.6742 18.0272 24.7805 17.0006 25.3852L12.8522 27.8461C12.5053 28.0524 12.0741 28.0571 11.7225 27.8555C11.3709 27.6539 11.1553 27.2836 11.1553 26.8758V21.8508C10.4944 22.0805 9.91782 22.268 9.48188 22.4086C8.95688 22.5774 8.38501 22.4321 7.99126 22.043H7.99594ZM18.6553 11.8758C19.1526 11.8758 19.6295 11.6783 19.9811 11.3266C20.3328 10.975 20.5303 10.4981 20.5303 10.0008C20.5303 9.50353 20.3328 9.02661 19.9811 8.67498C19.6295 8.32335 19.1526 8.12581 18.6553 8.12581C18.158 8.12581 17.6811 8.32335 17.3295 8.67498C16.9779 9.02661 16.7803 9.50353 16.7803 10.0008C16.7803 10.4981 16.9779 10.975 17.3295 11.3266C17.6811 11.6783 18.158 11.8758 18.6553 11.8758Z" fill="#01321F"/>
</g>
<defs>
<clipPath id="clip0_61_9010">
<path d="M0.65625 4H24.6562V28H0.65625V4Z" fill="white"/>
</clipPath>
</defs>
</svg>
