<svg width="25" height="33" viewBox="0 0 25 33" fill="none" xmlns="http://www.w3.org/2000/svg">
<g clip-path="url(#clip0_61_9025)">
<path d="M12.3281 4C15.5107 4 18.563 5.26428 20.8134 7.51472C23.0638 9.76516 24.3281 12.8174 24.3281 16C24.3281 19.1826 23.0638 22.2348 20.8134 24.4853C18.563 26.7357 15.5107 28 12.3281 28C9.14553 28 6.09328 26.7357 3.84284 24.4853C1.59241 22.2348 0.328125 19.1826 0.328125 16C0.328125 12.8174 1.59241 9.76516 3.84284 7.51472C6.09328 5.26428 9.14553 4 12.3281 4ZM11.2031 9.625V16C11.2031 16.375 11.3906 16.7266 11.7047 16.9375L16.2047 19.9375C16.7203 20.2844 17.4188 20.1437 17.7656 19.6234C18.1125 19.1031 17.9719 18.4094 17.4516 18.0625L13.4531 15.4V9.625C13.4531 9.00156 12.9516 8.5 12.3281 8.5C11.7047 8.5 11.2031 9.00156 11.2031 9.625Z" fill="white"/>
</g>
<defs>
<clipPath id="clip0_61_9025">
<path d="M0.328125 4H24.3281V28H0.328125V4Z" fill="white"/>
</clipPath>
</defs>
</svg>
