<svg width="262" height="99" viewBox="0 0 262 99" fill="none" xmlns="http://www.w3.org/2000/svg">
<path d="M120.374 0.372458C118.206 1.21357 114.292 5.63621 114.292 7.20991C114.292 8.02389 115.346 9.29913 116.46 9.84178L117.544 10.3844L116.4 11.117C115.767 11.5511 114.894 12.4194 114.473 13.0706C112.967 15.3769 113.66 15.4854 116.851 13.4233C118.086 12.6093 120.163 11.4155 121.458 10.7914C125.342 8.865 126.908 7.88823 127.54 6.96571C128.113 6.1246 128.353 4.84936 127.962 4.84936C127.872 4.84936 126.968 5.28348 125.945 5.82614C123.054 7.34557 121.428 7.86109 120.314 7.56263C119.35 7.31844 116.731 5.69047 116.701 5.33775C116.701 4.93076 119.26 3.22139 119.923 3.22139C120.314 3.22139 120.856 3.54699 121.278 4.03538C122.151 5.12069 122.572 5.06642 123.144 3.76405C123.807 2.29888 123.747 1.15931 123.024 0.508121C122.331 -0.115932 121.729 -0.170197 120.374 0.372458Z" fill="#FFD599"/>
<path d="M74.4263 16.1097C73.7036 17.1136 73.8241 17.4121 75.45 18.9857C76.263 19.7997 77.3169 21.1292 77.7685 21.9432C78.4912 23.2456 78.6116 23.734 78.6116 25.8232C78.5815 28.1295 78.6116 28.2109 79.1235 27.6411C80.2375 26.4201 80.2375 22.2145 79.1235 19.9354C78.3707 18.416 76.9555 16.7337 75.7511 15.974L74.908 15.4314L74.4263 16.1097Z" fill="#FFD599"/>
<path d="M67.0198 20.9121C66.8391 21.5632 66.4778 22.73 66.2369 23.4897C65.7853 24.9006 65.7853 24.9548 66.9897 28.5092C69.549 36.1878 70.1813 39.6608 72.4396 57.894C73.8548 69.2897 74.7581 73.9023 76.0829 76.4257C77.2873 78.6777 80.3887 81.6623 82.5566 82.6119C84.032 83.2631 84.4536 83.3174 86.6817 83.2088C90.5961 83.0189 92.5532 81.8251 95.3836 77.9451L97.2203 75.3946L98.6656 76.5884C101.165 78.6234 105.621 80.5498 107.789 80.5498C109.234 80.5498 110.439 79.2203 111.131 76.914C111.613 75.3132 111.643 74.7977 111.312 72.4643C110.378 65.4912 106.012 62.9678 101.737 66.9835C101.044 67.6075 100.261 68.53 99.9603 69.0184C99.6592 69.5339 99.1775 69.9681 98.9065 70.0223C98.6054 70.0766 97.2504 71.4332 95.8653 73.0883C92.9748 76.5342 91.8908 77.1854 88.2776 77.6466C85.116 78.0536 83.9718 77.7009 81.6232 75.5845C78.1605 72.41 77.2572 69.6967 76.3539 59.8747C75.6012 51.5992 74.7882 44.816 73.7645 38.6569C72.3493 30.0287 69.007 19.7725 67.622 19.7725C67.4714 19.7725 67.2004 20.288 67.0198 20.9121ZM105.651 71.3247C106.434 72.1387 107.247 73.9566 106.976 74.2279C106.675 74.4721 104.537 73.7124 103.483 72.9798C100.924 71.2162 101.074 71.4061 102.249 70.9448C103.905 70.2937 104.808 70.4022 105.651 71.3247Z" fill="#F9F9F9"/>
<path d="M120.376 23.6257C119.352 26.6375 119.322 26.9631 120.014 28.184C120.556 29.1065 120.797 30.5717 121.399 36.4595C122.152 43.9482 123.899 58.0572 125.464 69.5615C126.277 75.3679 126.398 76.9687 126.247 80.6316C126.097 85.1085 126.247 85.5426 127.301 83.9147C128.265 82.4224 128.776 79.9262 128.957 75.9377C129.138 71.4608 128.867 68.9103 126.066 47.9909C124.019 32.9323 123.959 32.2539 124.17 32.2539C124.23 32.2539 124.832 32.6881 125.464 33.2036C127.903 35.1843 127.753 34.1532 124.772 28.184C122.122 22.8931 121.58 21.9435 121.219 21.9435C121.068 21.9435 120.677 22.7032 120.376 23.6257Z" fill="#F9F9F9"/>
<path d="M36.9391 30.8425C35.9455 33.8271 35.9154 34.1256 36.3369 34.5868C36.9391 35.238 42.0277 37.4629 42.5396 37.3001C43.202 37.0559 44.1355 34.9396 44.1355 33.5558C44.1355 32.1449 44.4064 32.3348 39.5587 30.0014L37.5714 29.0246L36.9391 30.8425Z" fill="#FFD599"/>
<path d="M6.25711 38.5481C5.53446 38.8736 5.29358 39.4434 5.3538 40.8001C5.3538 41.2342 5.20325 42.1296 4.99248 42.7536C4.66127 43.7575 4.69138 44.0017 5.14303 44.6258C5.41402 45.0328 6.04634 45.4669 6.5281 45.6297C7.00986 45.7925 7.40129 46.0096 7.40129 46.091C7.40129 46.3894 4.84193 48.4515 3.72785 49.0484C2.16212 49.8895 0.837272 51.3547 0.59639 52.5214C0.415729 53.3897 0.50606 53.6067 1.19859 54.1494C1.77069 54.5835 2.37289 54.7734 3.2762 54.7734C4.51072 54.7734 7.91317 54.068 9.65956 53.4439C10.6833 53.0641 13.4836 51.4904 13.3631 51.3547C13.3029 51.3004 11.6167 51.5718 9.65956 51.9245C5.11292 52.7656 1.68036 52.8199 1.68036 52.0602C1.68036 51.9245 2.43311 51.4361 3.36653 50.9477C5.50435 49.8624 6.88942 48.7771 8.0035 47.3119L8.87669 46.1724L10.5629 46.4166C11.7974 46.6336 12.3394 46.6065 12.6706 46.3623C13.3631 45.8468 13.9954 43.6219 13.6642 42.835C13.2126 41.7497 10.6833 39.5791 9.05735 38.8736C7.37118 38.1411 7.22063 38.1411 6.25711 38.5481ZM8.3046 41.9939C8.45515 42.2924 8.6057 42.835 8.6057 43.2149C8.6057 43.7847 8.45515 43.9203 7.82284 43.9203C6.88942 43.9203 5.89578 43.4591 5.89578 43.0521C5.89578 42.618 7.1303 41.4784 7.58196 41.4784C7.79273 41.4784 8.12394 41.7226 8.3046 41.9939ZM12.0082 43.4319C12.8813 44.3545 12.6706 44.6258 11.1651 44.463C10.4123 44.3816 9.78 44.2459 9.81011 44.1103C9.81011 44.0017 9.81011 43.4862 9.81011 42.9436V41.9668L10.6532 42.428C11.1048 42.6722 11.7071 43.1335 12.0082 43.4319Z" fill="#FFD599"/>
<path d="M52.1461 40.4474C50.6707 43.2421 50.0986 45.3042 50.0384 47.8547C50.0082 50.5951 50.5201 51.5176 52.116 51.5176C52.8386 51.5176 53.2903 51.3276 53.7118 50.8664C54.2839 50.2152 55.4582 46.9593 55.1872 46.7422C55.127 46.688 54.7355 47.0949 54.3441 47.6647C53.4107 48.9671 52.116 49.2113 51.6643 48.126C51.1825 46.9593 51.303 45.6026 52.2364 42.4281C52.7182 40.773 53.1999 39.2264 53.3204 38.9551C53.4408 38.7109 53.4709 38.4939 53.3505 38.4939C53.2601 38.4939 52.7182 39.3892 52.1461 40.4474Z" fill="#FFD599"/>
<path d="M80.0267 43.5681C78.9126 45.7929 78.491 47.3666 78.4609 49.3473C78.4609 51.2738 79.0631 52.1149 80.3579 52.0063C81.3515 51.9249 82.1344 50.8668 82.5258 49.076L82.7366 48.1264L81.8333 49.076C81.0504 49.8629 80.8396 49.9714 80.3579 49.7272C79.5148 49.2659 79.5148 47.1767 80.388 44.3278C80.8095 42.9983 81.1106 41.8858 81.0504 41.8316C80.9902 41.7773 80.5385 42.5642 80.0267 43.5681Z" fill="#FFD599"/>
<path d="M101.195 46.688C99.2683 50.378 99.0877 54.1766 100.804 55.0449C101.557 55.3976 101.677 55.3976 102.34 54.8278C103.062 54.2037 103.755 52.6029 103.755 51.6261C103.725 51.2191 103.634 51.2734 103.273 51.8432C102.069 53.8782 100.503 52.9285 100.864 50.3509C100.954 49.5641 101.376 47.9904 101.767 46.8236C102.159 45.6841 102.43 44.7344 102.34 44.7344C102.279 44.7344 101.767 45.6298 101.195 46.688Z" fill="#FFD599"/>
<path d="M22.4275 54.8275C22.0963 55.4244 21.6145 56.4283 21.3736 56.9981C20.9822 58.002 21.0123 58.0834 21.6748 58.6804C22.0963 59.006 23.4513 59.7657 24.7159 60.3897L27.0043 61.5293L27.5462 60.7153C27.8473 60.2812 28.3291 59.1959 28.6302 58.3005C29.0819 56.9439 29.112 56.6183 28.7808 56.2384C28.3592 55.8043 23.9029 53.6879 23.3609 53.6879C23.2104 53.6879 22.7888 54.2035 22.4275 54.8275Z" fill="#FFD599"/>
<path d="M44.9489 54.0682C44.8585 54.2581 44.6779 55.4248 44.5875 56.6458C44.4069 58.4637 44.437 58.8435 44.7983 58.8435C45.0392 58.8435 45.4607 59.4133 45.7317 60.1459C46.4845 61.9909 48.7126 65.0298 51.9043 68.4757C53.4098 70.1036 54.8852 71.8401 55.1863 72.3285C55.6982 73.1968 55.6982 73.2239 54.9756 73.9293C54.012 74.8247 51.0311 76.317 48.803 77.0225C46.3942 77.7551 43.4735 77.9721 41.2754 77.5651C37.6321 76.8868 35.3738 75.3945 33.0553 72.1386C30.1949 68.1501 29.8637 67.7159 28.9302 67.2004C26.2203 65.681 21.0715 68.8555 17.6088 74.2007C16.8259 75.3945 15.4409 78.0535 14.4773 80.1427C12.3395 84.8096 11.7674 85.7592 10.6534 86.5189C7.97354 88.3097 5.11307 87.0345 3.48712 83.2901C2.16228 80.2513 1.92139 78.5419 1.9515 73.1425C1.98161 69.0997 1.92139 68.0415 1.62029 68.1229C1.07831 68.2857 0.596545 70.185 0.175003 73.6851C-0.577752 80.0071 1.13853 86.1933 4.54098 89.4764C6.82936 91.6741 9.17795 92.2711 11.2556 91.1315C12.6707 90.3446 13.6644 88.7709 15.9829 83.6157C18.3616 78.352 18.8433 77.5923 20.9811 75.6658C24.1728 72.7898 26.7322 71.9486 28.0872 73.2782C28.4184 73.6309 29.2313 74.8247 29.9239 75.9372C33.1457 81.2823 37.2708 83.4529 43.7143 83.2087C46.5748 83.1002 46.8157 83.0459 49.4654 81.7978C52.9281 80.1699 55.1562 78.2977 56.5112 75.7472C57.4446 74.0921 57.5349 73.6851 57.5349 71.5959C57.5349 69.4796 57.4446 69.154 56.5112 67.5803C55.9391 66.6578 54.7347 65.0569 53.8013 64.053C51.001 61.0684 49.5557 59.3591 49.5557 59.0606C49.5557 58.8978 49.9472 58.8435 50.5494 58.9249C51.7237 59.0877 52.4162 58.7893 52.1753 58.2195C51.9947 57.7854 45.8823 53.6883 45.4005 53.6883C45.25 53.6883 45.0392 53.8511 44.9489 54.0682Z" fill="#F9F9F9"/>
<path d="M13.0922 56.3198C11.7071 59.1145 11.677 59.4401 12.8814 60.2269C14.7182 61.4751 17.5485 62.9131 18.2109 62.9131C18.9637 62.9131 19.6562 61.8006 20.0176 60.0641C20.3488 58.5176 20.0477 58.1377 17.1872 56.4012C15.9828 55.6686 14.8988 54.9361 14.7784 54.7733C14.387 54.2035 13.9654 54.5562 13.0922 56.3198Z" fill="#FFD599"/>
<path d="M37.3015 56.1842C34.441 60.6611 33.357 66.8203 35.1636 68.5296C36.0067 69.3436 37.3015 69.3436 38.1144 68.5568C38.7167 67.9598 40.1318 64.3783 39.8608 64.107C39.7705 64.0527 39.349 64.4869 38.8973 65.0838C38.0241 66.2776 37.0004 66.5218 36.2777 65.7078C35.5551 64.921 35.8261 62.0178 36.9703 58.4905C37.5424 56.754 37.994 55.316 37.9338 55.316C37.9037 55.316 37.6327 55.723 37.3015 56.1842Z" fill="#FFD599"/>
<path d="M91.1673 63.3745C89.9629 65.8164 89.6016 67.0645 89.6016 69.0181C89.6016 71.1073 90.1737 71.9213 91.4985 71.8128C92.2513 71.7585 92.5825 71.5414 92.9739 70.7817C93.2449 70.2662 93.546 69.3979 93.6664 68.8824L93.8471 67.9328L93.0642 68.801C90.9264 71.1887 90.1435 68.801 91.5587 64.1342C91.9502 62.8047 92.2513 61.6922 92.191 61.638C92.1308 61.5837 91.6792 62.3706 91.1673 63.3745Z" fill="#FFD599"/>
<path d="M68.7364 71.65C67.0503 74.8788 66.4782 78.6503 67.5019 79.9526C67.9536 80.5496 68.9472 80.7395 69.6096 80.3325C70.0914 80.0612 70.814 78.6774 71.085 77.565L71.2958 76.6153L70.3925 77.565C69.6096 78.3518 69.3989 78.4603 68.9171 78.2161C68.1643 77.782 68.2246 74.7703 69.0677 72.2741C69.429 71.243 69.6699 70.3476 69.6096 70.2934C69.5494 70.2391 69.158 70.8632 68.7364 71.65Z" fill="#FFD599"/>
<path d="M24.4139 79.1121C23.2396 81.3099 22.7578 83.1006 22.7578 85.217C22.7578 86.7093 22.8783 87.1705 23.36 87.6046C23.9923 88.1744 24.2332 88.2287 25.0161 87.9845C25.5882 87.7674 26.5216 86.1937 26.8227 84.8914L27.0335 83.9417L26.0398 84.9728C25.1064 85.9224 24.9559 85.9767 24.4139 85.624C23.6009 85.0813 23.6912 82.9921 24.6849 80.0075C25.0763 78.7322 25.3774 77.6741 25.3172 77.6198C25.257 77.5655 24.8655 78.2439 24.4139 79.1121Z" fill="#FFD599"/>
<path d="M109.024 86.6003C108.361 87.2244 107.338 88.4454 106.766 89.3407C105.14 91.7827 100.984 94.1161 92.4632 97.372C89.6329 98.4573 88.4887 99 89.1812 99C90.1749 99 98.5154 97.0193 99.5693 96.5309C102.942 95.0115 106.163 92.4881 107.247 90.5075C108.03 89.1508 108.03 89.1508 109.626 90.209C110.71 90.9144 111.613 91.1858 112.065 90.9144C113.239 90.2361 113.45 87.4957 112.456 86.2205C111.553 85.0538 110.499 85.1623 109.024 86.6003ZM112.185 88.174C112.366 88.4454 112.487 88.7167 112.487 88.7981C112.487 89.1237 111.704 88.9338 110.981 88.4182C110.379 87.9841 110.319 87.8213 110.65 87.6314C111.192 87.3058 111.824 87.5229 112.185 88.174Z" fill="#FFD599"/>
<path d="M151.832 38.4161C151.309 38.4161 151.048 38.1494 151.048 37.6161C151.048 37.0934 151.309 36.8321 151.832 36.8321C152.344 36.8321 152.6 37.0934 152.6 37.6161C152.6 38.1494 152.344 38.4161 151.832 38.4161ZM153.864 38.4161C153.341 38.4161 153.08 38.1494 153.08 37.6161C153.08 37.0934 153.341 36.8321 153.864 36.8321C154.376 36.8321 154.632 37.0934 154.632 37.6161C154.632 38.1494 154.376 38.4161 153.864 38.4161ZM156.84 46.1601H157.896V47.4561H156.68C155.581 47.4561 154.792 47.0507 154.312 46.2401C153.8 46.7307 153.165 46.9761 152.408 46.9761C151.469 46.9761 150.723 46.6241 150.168 45.9201C149.709 45.3227 149.48 44.5921 149.48 43.7281C149.48 42.6934 149.795 41.8614 150.424 41.2321C150.957 40.6881 151.608 40.4161 152.376 40.4161C152.963 40.4161 153.469 40.5654 153.896 40.8641V40.1761L155.288 39.4401V44.5601C155.288 45.6267 155.805 46.1601 156.84 46.1601ZM153.896 42.3521C153.501 41.9147 153.016 41.6961 152.44 41.6961C151.971 41.6961 151.587 41.8881 151.288 42.2721C150.989 42.6454 150.84 43.1361 150.84 43.7441C150.84 44.3627 150.989 44.8587 151.288 45.2321C151.587 45.6054 151.976 45.7921 152.456 45.7921C153.053 45.7921 153.544 45.5467 153.928 45.0561C153.907 44.8641 153.896 44.7147 153.896 44.6081V42.3521ZM162.766 38.5761C162.243 38.5761 161.982 38.3094 161.982 37.7761C161.982 37.2534 162.243 36.9921 162.766 36.9921C163.278 36.9921 163.534 37.2534 163.534 37.7761C163.534 38.3094 163.278 38.5761 162.766 38.5761ZM159.502 47.4561V46.1601H160.558C161.603 46.1601 162.126 45.6267 162.126 44.5601V41.2481L163.502 40.5121V44.6081C163.502 45.5147 163.23 46.2294 162.686 46.7521C162.185 47.2214 161.529 47.4561 160.718 47.4561H159.502ZM171.719 47.4561C170.791 47.4561 170.076 47.1574 169.575 46.5601C169.148 46.0481 168.935 45.3974 168.935 44.6081V37.8721L170.311 37.1361V44.5601C170.311 45.6267 170.834 46.1601 171.879 46.1601H172.935V47.4561H171.719ZM177.152 43.1201C177.152 42.1921 177.429 41.4721 177.984 40.9601C178.475 40.5227 179.115 40.3041 179.904 40.3041C180.917 40.3041 181.696 40.6774 182.24 41.4241C182.709 42.0534 182.944 42.8747 182.944 43.8881C182.944 45.0401 182.645 45.9414 182.048 46.5921C181.525 47.1681 180.843 47.4561 180 47.4561C179.04 47.4561 178.309 47.1894 177.808 46.6561C177.296 47.1894 176.608 47.4561 175.744 47.4561H174.528V46.1601H175.584C176.629 46.1601 177.152 45.6267 177.152 44.5601V43.1201ZM178.528 44.6721C178.528 45.6641 179.013 46.1601 179.984 46.1601C180.485 46.1601 180.875 45.9574 181.152 45.5521C181.44 45.1467 181.584 44.5814 181.584 43.8561C181.584 43.1414 181.435 42.5867 181.136 42.1921C180.837 41.7867 180.427 41.5841 179.904 41.5841C178.987 41.5841 178.528 42.1174 178.528 43.1841V44.6721ZM187.301 36.9121L187.669 36.2241H188.101C187.994 36.0321 187.941 35.8347 187.941 35.6321C187.941 35.3121 188.058 35.0401 188.293 34.8161C188.527 34.5814 188.805 34.4641 189.125 34.4641C189.391 34.4641 189.647 34.5494 189.893 34.7201V35.4241C189.658 35.2427 189.434 35.1521 189.221 35.1521C188.826 35.1521 188.629 35.3281 188.629 35.6801C188.629 35.8614 188.703 36.0427 188.853 36.2241H190.309L189.941 36.9121H187.301ZM188.149 47.4561V38.5121L189.525 37.7761V47.4561H188.149Z" fill="#FFD599"/>
<path d="M154.712 15.808H157.352L162.944 31H159.752C159.48 30.2 159.144 29.144 158.744 27.832H153.296C153.072 28.552 152.728 29.608 152.264 31H149.12L154.712 15.808ZM156.056 19.912C155.608 21.176 154.992 22.952 154.208 25.24H157.856C157.104 23.032 156.504 21.256 156.056 19.912Z" fill="#F9F9F9"/>
<path d="M199.702 15.808H202.342L207.934 31H204.742C204.47 30.2 204.134 29.144 203.734 27.832H198.286C198.062 28.552 197.718 29.608 197.254 31H194.11L199.702 15.808ZM201.046 19.912C200.598 21.176 199.982 22.952 199.198 25.24H202.846C202.094 23.032 201.494 21.256 201.046 19.912ZM213.789 20.824V31H210.693V15.808H213.309C215.869 19.136 218.413 22.632 220.941 26.296V15.808H224.085V31H221.397C219.893 29.224 217.357 25.832 213.789 20.824ZM232.431 15.808H235.071L240.663 31H237.471C237.199 30.2 236.863 29.144 236.463 27.832H231.015C230.791 28.552 230.447 29.608 229.983 31H226.839L232.431 15.808ZM233.775 19.912C233.327 21.176 232.711 22.952 231.927 25.24H235.575C234.823 23.032 234.223 21.256 233.775 19.912Z" fill="#F9F9F9"/>
<path d="M176.443 12.0457C175.257 12.3037 174.383 13.1481 174.1 14.313C174.002 14.7157 174.039 15.3803 174.182 15.8103C174.716 17.3896 176.303 19.1683 178.7 20.8766C179.258 21.2754 179.286 21.291 179.512 21.291C179.709 21.291 179.906 21.1737 180.669 20.6069C182.885 18.9611 184.345 17.2528 184.817 15.7594C184.973 15.2708 184.981 14.5749 184.838 14.1371C184.739 13.8244 184.514 13.3709 184.378 13.2028C183.644 12.2959 182.495 11.8502 181.408 12.0457C180.796 12.1551 180.288 12.4131 179.779 12.8783L179.508 13.1285L179.356 12.9683C179.007 12.6008 178.339 12.2216 177.797 12.0809C177.461 11.9949 176.755 11.9753 176.443 12.0457ZM177.526 13.2184C178.084 13.3592 178.519 13.7071 178.839 14.2583C179.065 14.6453 179.217 14.7626 179.496 14.7626C179.746 14.7626 179.918 14.657 180.058 14.4225C180.443 13.7657 180.788 13.453 181.317 13.281C182.22 12.9839 183.164 13.3435 183.57 14.1449C183.857 14.7079 183.824 15.2317 183.459 15.9627C183.069 16.7446 182.548 17.4013 181.605 18.2848C180.763 19.0745 179.619 20.001 179.483 20.001C179.414 20.001 178.618 19.395 178.023 18.8868C175.622 16.8345 174.785 15.1731 175.544 13.9768C175.77 13.6172 176.18 13.3162 176.582 13.2145C176.841 13.1481 177.259 13.1481 177.526 13.2184Z" fill="#FFD599"/>
<path d="M170.264 15.9117C169.804 16.0329 169.357 16.3886 169.164 16.7756C169.008 17.0923 168.984 17.5262 169.008 19.6489C169.033 21.7052 169.057 22.0688 169.238 22.8506C169.423 23.6481 169.706 24.383 170.124 25.1531C170.699 26.2047 171.285 26.9397 173.054 28.8161C174.022 29.8442 174.121 30.0631 174.125 31.1695C174.125 31.6229 174.129 31.6503 174.231 31.7676C174.535 32.1077 175.04 32.0686 175.241 31.6894C175.36 31.4666 175.343 30.4853 175.216 30.0006C175.032 29.3047 174.835 29.0155 173.772 27.8583C172.639 26.6269 172.365 26.3181 172.044 25.9037C171.195 24.8013 170.678 23.7263 170.416 22.5027C170.235 21.6622 170.219 21.3768 170.21 19.2697L170.206 17.2721L170.305 17.1705C170.453 17.0219 170.637 16.975 170.814 17.0454C171.101 17.1588 171.097 17.1314 171.109 18.8163C171.125 20.4191 171.158 20.8452 171.314 21.4472C171.688 22.8701 172.406 24.0156 173.357 24.7036C173.522 24.8209 173.903 25.0593 174.211 25.2313C174.515 25.4033 174.921 25.6535 175.109 25.7903C175.54 26.0914 175.663 26.1304 175.91 26.0249C176.205 25.8998 176.328 25.6183 176.217 25.333C176.193 25.2743 175.569 24.641 174.826 23.9295C174.088 23.2142 173.452 22.5691 173.415 22.4909C173.378 22.4167 173.345 22.2799 173.345 22.1899C173.345 22.057 173.37 22.0023 173.481 21.8967C173.641 21.7443 173.776 21.7013 173.981 21.7365C174.096 21.7599 174.355 21.9906 175.565 23.1672C176.361 23.9374 177.091 24.6801 177.19 24.8169C177.444 25.161 177.678 25.6105 177.785 25.9702C177.867 26.2321 177.879 26.365 177.879 26.9201C177.875 27.5104 177.863 27.6355 177.703 28.4252C177.206 30.8919 177.108 31.4626 177.157 31.6151C177.292 32.0451 177.986 32.135 178.244 31.7597C178.314 31.6581 178.367 31.4157 178.679 29.8247C179.135 27.483 179.196 26.8967 179.073 26.2165C178.938 25.4854 178.56 24.6488 178.113 24.082C177.74 23.6129 174.962 20.9429 174.711 20.8139C174.039 20.4621 173.197 20.5481 172.68 21.0211C172.586 21.1032 172.504 21.1657 172.492 21.154C172.479 21.1423 172.442 21.0172 172.414 20.8725C172.369 20.6771 172.344 20.1415 172.324 18.8671C172.291 16.9867 172.295 17.018 172.053 16.6232C171.704 16.0563 170.916 15.7436 170.264 15.9117Z" fill="#FFD599"/>
<path d="M187.952 15.9116C187.632 15.9937 187.447 16.0993 187.193 16.3456C186.934 16.5879 186.795 16.8225 186.721 17.1157C186.701 17.2095 186.68 17.9405 186.68 18.7888C186.68 20.2665 186.639 20.8412 186.52 21.1383L186.483 21.2399L186.253 21.0367C185.72 20.5558 185.055 20.4503 184.39 20.7435C184.148 20.849 184.038 20.9428 183.48 21.4979C183.131 21.8459 182.437 22.5183 181.941 22.9913C180.948 23.9334 180.624 24.3321 180.32 24.9928C179.853 26.0053 179.77 26.8184 180.008 28.1319C180.32 29.8481 180.69 31.6659 180.751 31.7519C180.87 31.9278 181.055 32.0099 181.297 31.9903C181.486 31.9786 181.539 31.9552 181.666 31.8301C181.814 31.6893 181.818 31.6815 181.814 31.3844C181.814 31.1968 181.74 30.7237 181.621 30.1256C181.248 28.2375 181.1 27.3305 181.1 26.881C181.1 26.1656 181.334 25.4736 181.806 24.8208C182.097 24.4064 184.788 21.8185 184.985 21.756C185.166 21.7012 185.371 21.7638 185.511 21.9201C185.638 22.0687 185.671 22.186 185.634 22.3775C185.609 22.5026 185.424 22.6981 184.218 23.8513C183.455 24.5823 182.811 25.2235 182.782 25.2743C182.647 25.5284 182.774 25.8997 183.041 26.0405C183.295 26.1695 183.488 26.1148 183.992 25.7668C184.235 25.6026 184.723 25.2899 185.076 25.0749C185.868 24.5941 185.991 24.4963 186.315 24.1132C186.971 23.3392 187.431 22.4596 187.689 21.4862C187.866 20.8217 187.911 20.2665 187.911 18.7028V17.2721L188.038 17.1509C188.243 16.9554 188.6 16.9945 188.744 17.2252C188.805 17.3229 188.814 17.5262 188.814 19.168C188.814 21.4471 188.752 22.0492 188.387 23.2649C187.968 24.6644 187.304 25.673 185.638 27.4439C185.277 27.8309 184.846 28.2883 184.682 28.4564C183.992 29.1913 183.685 29.9888 183.685 31.0404C183.685 31.5916 183.763 31.7753 184.062 31.9161C184.226 31.9942 184.272 32.0021 184.415 31.9669C184.596 31.92 184.768 31.8027 184.842 31.6776C184.875 31.6268 184.903 31.3336 184.92 30.9466C184.961 29.9927 185.063 29.7699 185.843 28.9294C186.069 28.6909 186.508 28.214 186.828 27.8739C188.768 25.7864 189.585 24.2422 189.905 22.0531C189.958 21.6817 189.975 21.15 189.991 19.5316C190.016 17.2877 189.999 17.0375 189.807 16.7013C189.454 16.0837 188.629 15.7318 187.952 15.9116Z" fill="#FFD599"/>
</svg>
