<svg width="52" height="53" viewBox="0 0 52 53" fill="none" xmlns="http://www.w3.org/2000/svg">
<path fill-rule="evenodd" clip-rule="evenodd" d="M2.16602 26.4993C2.16602 13.3368 12.8368 2.66602 25.9993 2.66602C39.1618 2.66602 49.8327 13.3368 49.8327 26.4993C49.8327 39.6618 39.1618 50.3327 25.9993 50.3327C12.8368 50.3327 2.16602 39.6618 2.16602 26.4993ZM27.763 10.0738C27.5626 9.79298 27.298 9.56404 26.9912 9.40609C26.6844 9.24813 26.3444 9.16572 25.9993 9.16572C25.6543 9.16572 25.3142 9.24813 25.0075 9.40609C24.7007 9.56404 24.4361 9.79298 24.2357 10.0738L13.4023 25.2405C13.1401 25.6079 12.9991 26.048 12.9991 26.4993C12.9991 26.9507 13.1401 27.3908 13.4023 27.7582L24.2357 42.9248C24.4361 43.2057 24.7007 43.4346 25.0075 43.5926C25.3142 43.7506 25.6543 43.833 25.9993 43.833C26.3444 43.833 26.6844 43.7506 26.9912 43.5926C27.298 43.4346 27.5626 43.2057 27.763 42.9248L38.5963 27.7582C38.8586 27.3908 38.9996 26.9507 38.9996 26.4993C38.9996 26.048 38.8586 25.6079 38.5963 25.2405L27.763 10.0738ZM25.9993 28.4992L21.0008 26.4993L25.9993 24.4995L30.9978 26.4993L25.9993 28.4992ZM26.8032 32.8433L30.7725 31.2573L25.9993 37.9372L21.2262 31.2573L25.1955 32.8433C25.7116 33.0495 26.2871 33.0495 26.8032 32.8433ZM25.9993 15.0593L21.2262 21.7413L25.1955 20.1553C25.7116 19.9492 26.2871 19.9492 26.8032 20.1553L30.7725 21.7413L25.9993 15.0593Z" fill="#01321F"/>
</svg>
