<svg width="52" height="80" viewBox="0 0 52 80" fill="none" xmlns="http://www.w3.org/2000/svg">
<path d="M11.3762 31.207H0V80.01H11.3762V31.207Z" fill="#33CC66"/>
<path d="M40.3398 31.1973C40.3496 33.4937 39.9838 35.7699 39.2633 37.8946C38.5429 40.0193 37.4822 41.9506 36.1421 43.5773C33.4179 46.8841 29.7287 48.7638 25.8696 48.8113C18.9886 48.8663 12.4053 52.1773 7.55793 58.0213C2.71137 63.8653 -0.00577722 71.7663 9.22319e-06 80.0003H11.3762C11.3695 77.7033 11.738 75.4274 12.4605 73.3032C13.183 71.179 14.2452 69.2484 15.5862 67.6223C18.3122 64.3163 22.0015 62.4359 25.8613 62.3853C32.7422 62.3333 39.3247 59.0223 44.1704 53.1773C49.0153 47.3323 51.7284 39.4293 51.716 31.1973H40.3398Z" fill="#000099"/>
<path d="M25.8617 0C18.9816 0.055 12.3991 3.366 7.55502 9.21C2.71094 15.056 -0.00290196 22.958 0.00784429 31.189H11.3757C11.367 28.8922 11.7338 26.616 12.455 24.4913C13.1763 22.3666 14.2378 20.4355 15.5783 18.809C18.3037 15.5023 21.9936 13.6227 25.8534 13.575C29.7221 13.625 33.418 15.505 36.131 18.806C37.4717 20.4328 38.5331 22.3645 39.254 24.4897C39.9748 26.615 40.3409 28.8918 40.3311 31.189H51.7072C51.7205 22.959 49.0083 15.057 44.165 9.212C39.321 3.368 32.7409 0.055 25.8617 0Z" fill="#3399FF"/>
</svg>
